<mxfile host="Electron" modified="2023-04-27T06:05:54.180Z" agent="Mozilla/5.0 (Windows NT 10.0; Win64; x64) AppleWebKit/537.36 (KHTML, like Gecko) draw.io/21.2.1 Chrome/112.0.5615.87 Electron/24.1.2 Safari/537.36" etag="zAcdRwqQW_2FpMG18IlG" version="21.2.1" type="device">
  <diagram id="C5RBs43oDa-KdzZeNtuy" name="Page-1">
    <mxGraphModel dx="1219" dy="722" grid="1" gridSize="10" guides="1" tooltips="1" connect="1" arrows="1" fold="1" page="1" pageScale="1" pageWidth="827" pageHeight="1169" math="0" shadow="0">
      <root>
        <mxCell id="WIyWlLk6GJQsqaUBKTNV-0" />
        <mxCell id="WIyWlLk6GJQsqaUBKTNV-1" parent="WIyWlLk6GJQsqaUBKTNV-0" />
        <mxCell id="t7YejrAykJ8eL_MnhxdB-8" style="edgeStyle=orthogonalEdgeStyle;rounded=0;orthogonalLoop=1;jettySize=auto;html=1;exitX=0.5;exitY=1;exitDx=0;exitDy=0;entryX=0.5;entryY=0;entryDx=0;entryDy=0;" edge="1" parent="WIyWlLk6GJQsqaUBKTNV-1" source="t7YejrAykJ8eL_MnhxdB-1" target="t7YejrAykJ8eL_MnhxdB-7">
          <mxGeometry relative="1" as="geometry" />
        </mxCell>
        <mxCell id="t7YejrAykJ8eL_MnhxdB-1" value="Entry Conveyor Start" style="rounded=1;whiteSpace=wrap;html=1;absoluteArcSize=1;arcSize=14;strokeWidth=2;" vertex="1" parent="WIyWlLk6GJQsqaUBKTNV-1">
          <mxGeometry x="47.5" y="140" width="100" height="50" as="geometry" />
        </mxCell>
        <mxCell id="t7YejrAykJ8eL_MnhxdB-2" value="" style="endArrow=classic;html=1;rounded=0;exitX=0.5;exitY=1;exitDx=0;exitDy=0;entryX=0.5;entryY=0;entryDx=0;entryDy=0;exitPerimeter=0;" edge="1" parent="WIyWlLk6GJQsqaUBKTNV-1" source="t7YejrAykJ8eL_MnhxdB-4" target="t7YejrAykJ8eL_MnhxdB-1">
          <mxGeometry width="50" height="50" relative="1" as="geometry">
            <mxPoint x="97.5" y="120" as="sourcePoint" />
            <mxPoint x="347.5" y="230" as="targetPoint" />
          </mxGeometry>
        </mxCell>
        <mxCell id="t7YejrAykJ8eL_MnhxdB-4" value="Machine Started" style="strokeWidth=2;html=1;shape=mxgraph.flowchart.start_1;whiteSpace=wrap;" vertex="1" parent="WIyWlLk6GJQsqaUBKTNV-1">
          <mxGeometry x="47.5" y="40" width="100" height="60" as="geometry" />
        </mxCell>
        <mxCell id="t7YejrAykJ8eL_MnhxdB-12" style="edgeStyle=orthogonalEdgeStyle;rounded=0;orthogonalLoop=1;jettySize=auto;html=1;exitX=0.5;exitY=1;exitDx=0;exitDy=0;exitPerimeter=0;entryX=0.5;entryY=0;entryDx=0;entryDy=0;" edge="1" parent="WIyWlLk6GJQsqaUBKTNV-1" source="t7YejrAykJ8eL_MnhxdB-5" target="t7YejrAykJ8eL_MnhxdB-10">
          <mxGeometry relative="1" as="geometry" />
        </mxCell>
        <mxCell id="t7YejrAykJ8eL_MnhxdB-14" style="edgeStyle=orthogonalEdgeStyle;rounded=0;orthogonalLoop=1;jettySize=auto;html=1;exitX=1;exitY=0.5;exitDx=0;exitDy=0;exitPerimeter=0;" edge="1" parent="WIyWlLk6GJQsqaUBKTNV-1" source="t7YejrAykJ8eL_MnhxdB-5" target="t7YejrAykJ8eL_MnhxdB-13">
          <mxGeometry relative="1" as="geometry" />
        </mxCell>
        <mxCell id="t7YejrAykJ8eL_MnhxdB-5" value="Is High Sensor Detect a High Object?" style="strokeWidth=2;html=1;shape=mxgraph.flowchart.decision;whiteSpace=wrap;" vertex="1" parent="WIyWlLk6GJQsqaUBKTNV-1">
          <mxGeometry x="40" y="300" width="115" height="130" as="geometry" />
        </mxCell>
        <mxCell id="t7YejrAykJ8eL_MnhxdB-9" style="edgeStyle=orthogonalEdgeStyle;rounded=0;orthogonalLoop=1;jettySize=auto;html=1;exitX=0.5;exitY=1;exitDx=0;exitDy=0;entryX=0.5;entryY=0;entryDx=0;entryDy=0;entryPerimeter=0;" edge="1" parent="WIyWlLk6GJQsqaUBKTNV-1" source="t7YejrAykJ8eL_MnhxdB-7" target="t7YejrAykJ8eL_MnhxdB-5">
          <mxGeometry relative="1" as="geometry" />
        </mxCell>
        <mxCell id="t7YejrAykJ8eL_MnhxdB-7" value="Entering the Height Detection Sensor" style="rounded=1;whiteSpace=wrap;html=1;absoluteArcSize=1;arcSize=14;strokeWidth=2;" vertex="1" parent="WIyWlLk6GJQsqaUBKTNV-1">
          <mxGeometry x="47.5" y="220" width="100" height="50" as="geometry" />
        </mxCell>
        <mxCell id="t7YejrAykJ8eL_MnhxdB-18" style="edgeStyle=orthogonalEdgeStyle;rounded=0;orthogonalLoop=1;jettySize=auto;html=1;exitX=0.5;exitY=1;exitDx=0;exitDy=0;entryX=0;entryY=0.5;entryDx=0;entryDy=0;entryPerimeter=0;" edge="1" parent="WIyWlLk6GJQsqaUBKTNV-1" source="t7YejrAykJ8eL_MnhxdB-10" target="t7YejrAykJ8eL_MnhxdB-17">
          <mxGeometry relative="1" as="geometry" />
        </mxCell>
        <mxCell id="t7YejrAykJ8eL_MnhxdB-10" value="Machine Memory To Turn to the Left Conveyor" style="rounded=1;whiteSpace=wrap;html=1;absoluteArcSize=1;arcSize=14;strokeWidth=2;" vertex="1" parent="WIyWlLk6GJQsqaUBKTNV-1">
          <mxGeometry x="47.5" y="470" width="100" height="60" as="geometry" />
        </mxCell>
        <mxCell id="t7YejrAykJ8eL_MnhxdB-19" style="edgeStyle=orthogonalEdgeStyle;rounded=0;orthogonalLoop=1;jettySize=auto;html=1;exitX=0.5;exitY=1;exitDx=0;exitDy=0;entryX=1;entryY=0.5;entryDx=0;entryDy=0;entryPerimeter=0;" edge="1" parent="WIyWlLk6GJQsqaUBKTNV-1" source="t7YejrAykJ8eL_MnhxdB-13" target="t7YejrAykJ8eL_MnhxdB-17">
          <mxGeometry relative="1" as="geometry" />
        </mxCell>
        <mxCell id="t7YejrAykJ8eL_MnhxdB-13" value="Machine Memory To Turn to the Left Conveyor" style="rounded=1;whiteSpace=wrap;html=1;absoluteArcSize=1;arcSize=14;strokeWidth=2;" vertex="1" parent="WIyWlLk6GJQsqaUBKTNV-1">
          <mxGeometry x="207.5" y="470" width="100" height="60" as="geometry" />
        </mxCell>
        <mxCell id="t7YejrAykJ8eL_MnhxdB-15" value="Yes" style="text;html=1;strokeColor=none;fillColor=none;align=center;verticalAlign=middle;whiteSpace=wrap;rounded=0;" vertex="1" parent="WIyWlLk6GJQsqaUBKTNV-1">
          <mxGeometry x="97.5" y="430" width="60" height="30" as="geometry" />
        </mxCell>
        <mxCell id="t7YejrAykJ8eL_MnhxdB-16" value="No" style="text;html=1;strokeColor=none;fillColor=none;align=center;verticalAlign=middle;whiteSpace=wrap;rounded=0;" vertex="1" parent="WIyWlLk6GJQsqaUBKTNV-1">
          <mxGeometry x="261.5" y="430" width="60" height="30" as="geometry" />
        </mxCell>
        <mxCell id="t7YejrAykJ8eL_MnhxdB-21" style="edgeStyle=orthogonalEdgeStyle;rounded=0;orthogonalLoop=1;jettySize=auto;html=1;exitX=0.5;exitY=1;exitDx=0;exitDy=0;exitPerimeter=0;entryX=0.5;entryY=0;entryDx=0;entryDy=0;" edge="1" parent="WIyWlLk6GJQsqaUBKTNV-1" source="t7YejrAykJ8eL_MnhxdB-17" target="t7YejrAykJ8eL_MnhxdB-20">
          <mxGeometry relative="1" as="geometry" />
        </mxCell>
        <mxCell id="t7YejrAykJ8eL_MnhxdB-17" value="" style="verticalLabelPosition=bottom;verticalAlign=top;html=1;shape=mxgraph.flowchart.or;" vertex="1" parent="WIyWlLk6GJQsqaUBKTNV-1">
          <mxGeometry x="156.25" y="565" width="40" height="40" as="geometry" />
        </mxCell>
        <mxCell id="t7YejrAykJ8eL_MnhxdB-34" style="edgeStyle=orthogonalEdgeStyle;rounded=0;orthogonalLoop=1;jettySize=auto;html=1;exitX=0.5;exitY=1;exitDx=0;exitDy=0;entryX=0;entryY=0.5;entryDx=0;entryDy=0;" edge="1" parent="WIyWlLk6GJQsqaUBKTNV-1" source="t7YejrAykJ8eL_MnhxdB-20" target="t7YejrAykJ8eL_MnhxdB-22">
          <mxGeometry relative="1" as="geometry">
            <Array as="points">
              <mxPoint x="176" y="740" />
              <mxPoint x="340" y="740" />
              <mxPoint x="340" y="85" />
            </Array>
          </mxGeometry>
        </mxCell>
        <mxCell id="t7YejrAykJ8eL_MnhxdB-20" value="Start the Feeding Conveyor" style="rounded=1;whiteSpace=wrap;html=1;absoluteArcSize=1;arcSize=14;strokeWidth=2;" vertex="1" parent="WIyWlLk6GJQsqaUBKTNV-1">
          <mxGeometry x="126.25" y="640" width="100" height="50" as="geometry" />
        </mxCell>
        <mxCell id="t7YejrAykJ8eL_MnhxdB-35" style="edgeStyle=orthogonalEdgeStyle;rounded=0;orthogonalLoop=1;jettySize=auto;html=1;exitX=0.5;exitY=1;exitDx=0;exitDy=0;entryX=0.5;entryY=0;entryDx=0;entryDy=0;" edge="1" parent="WIyWlLk6GJQsqaUBKTNV-1" source="t7YejrAykJ8eL_MnhxdB-22" target="t7YejrAykJ8eL_MnhxdB-24">
          <mxGeometry relative="1" as="geometry" />
        </mxCell>
        <mxCell id="t7YejrAykJ8eL_MnhxdB-22" value="Stop the entry conveyor prevent more objects entry&amp;nbsp;" style="rounded=1;whiteSpace=wrap;html=1;absoluteArcSize=1;arcSize=14;strokeWidth=2;" vertex="1" parent="WIyWlLk6GJQsqaUBKTNV-1">
          <mxGeometry x="390" y="50" width="100" height="70" as="geometry" />
        </mxCell>
        <mxCell id="t7YejrAykJ8eL_MnhxdB-36" style="edgeStyle=orthogonalEdgeStyle;rounded=0;orthogonalLoop=1;jettySize=auto;html=1;exitX=0.5;exitY=1;exitDx=0;exitDy=0;entryX=0.5;entryY=0;entryDx=0;entryDy=0;" edge="1" parent="WIyWlLk6GJQsqaUBKTNV-1" source="t7YejrAykJ8eL_MnhxdB-24" target="t7YejrAykJ8eL_MnhxdB-29">
          <mxGeometry relative="1" as="geometry" />
        </mxCell>
        <mxCell id="t7YejrAykJ8eL_MnhxdB-24" value="Triggering At entry sensor triggering the Load Object to Turntable" style="rounded=1;whiteSpace=wrap;html=1;absoluteArcSize=1;arcSize=14;strokeWidth=2;" vertex="1" parent="WIyWlLk6GJQsqaUBKTNV-1">
          <mxGeometry x="390" y="140" width="101.25" height="70" as="geometry" />
        </mxCell>
        <mxCell id="t7YejrAykJ8eL_MnhxdB-38" style="edgeStyle=orthogonalEdgeStyle;rounded=0;orthogonalLoop=1;jettySize=auto;html=1;exitX=0.5;exitY=1;exitDx=0;exitDy=0;" edge="1" parent="WIyWlLk6GJQsqaUBKTNV-1" source="t7YejrAykJ8eL_MnhxdB-29" target="t7YejrAykJ8eL_MnhxdB-37">
          <mxGeometry relative="1" as="geometry" />
        </mxCell>
        <mxCell id="t7YejrAykJ8eL_MnhxdB-29" value="The Turntable detects the object is fully loaded" style="rounded=1;whiteSpace=wrap;html=1;absoluteArcSize=1;arcSize=14;strokeWidth=2;" vertex="1" parent="WIyWlLk6GJQsqaUBKTNV-1">
          <mxGeometry x="390" y="240" width="100" height="50" as="geometry" />
        </mxCell>
        <mxCell id="t7YejrAykJ8eL_MnhxdB-41" style="edgeStyle=orthogonalEdgeStyle;rounded=0;orthogonalLoop=1;jettySize=auto;html=1;exitX=0.5;exitY=1;exitDx=0;exitDy=0;entryX=0.5;entryY=0;entryDx=0;entryDy=0;entryPerimeter=0;" edge="1" parent="WIyWlLk6GJQsqaUBKTNV-1" source="t7YejrAykJ8eL_MnhxdB-37" target="t7YejrAykJ8eL_MnhxdB-39">
          <mxGeometry relative="1" as="geometry" />
        </mxCell>
        <mxCell id="t7YejrAykJ8eL_MnhxdB-37" value="The Turntable is turning to the Unloading Position" style="rounded=1;whiteSpace=wrap;html=1;absoluteArcSize=1;arcSize=14;strokeWidth=2;" vertex="1" parent="WIyWlLk6GJQsqaUBKTNV-1">
          <mxGeometry x="390" y="320" width="100" height="57.5" as="geometry" />
        </mxCell>
        <mxCell id="t7YejrAykJ8eL_MnhxdB-45" style="edgeStyle=orthogonalEdgeStyle;rounded=0;orthogonalLoop=1;jettySize=auto;html=1;exitX=0.5;exitY=1;exitDx=0;exitDy=0;exitPerimeter=0;entryX=0.5;entryY=0;entryDx=0;entryDy=0;" edge="1" parent="WIyWlLk6GJQsqaUBKTNV-1" source="t7YejrAykJ8eL_MnhxdB-39" target="t7YejrAykJ8eL_MnhxdB-42">
          <mxGeometry relative="1" as="geometry" />
        </mxCell>
        <mxCell id="t7YejrAykJ8eL_MnhxdB-46" style="edgeStyle=orthogonalEdgeStyle;rounded=0;orthogonalLoop=1;jettySize=auto;html=1;exitX=1;exitY=0.5;exitDx=0;exitDy=0;exitPerimeter=0;entryX=0.5;entryY=0;entryDx=0;entryDy=0;" edge="1" parent="WIyWlLk6GJQsqaUBKTNV-1" source="t7YejrAykJ8eL_MnhxdB-39" target="t7YejrAykJ8eL_MnhxdB-44">
          <mxGeometry relative="1" as="geometry" />
        </mxCell>
        <mxCell id="t7YejrAykJ8eL_MnhxdB-39" value="" style="verticalLabelPosition=bottom;verticalAlign=top;html=1;shape=mxgraph.flowchart.summing_function;" vertex="1" parent="WIyWlLk6GJQsqaUBKTNV-1">
          <mxGeometry x="420" y="425" width="40" height="40" as="geometry" />
        </mxCell>
        <mxCell id="t7YejrAykJ8eL_MnhxdB-51" style="edgeStyle=orthogonalEdgeStyle;rounded=0;orthogonalLoop=1;jettySize=auto;html=1;exitX=0.5;exitY=1;exitDx=0;exitDy=0;entryX=0.5;entryY=0;entryDx=0;entryDy=0;" edge="1" parent="WIyWlLk6GJQsqaUBKTNV-1" source="t7YejrAykJ8eL_MnhxdB-42" target="t7YejrAykJ8eL_MnhxdB-49">
          <mxGeometry relative="1" as="geometry" />
        </mxCell>
        <mxCell id="t7YejrAykJ8eL_MnhxdB-42" value="Higher Box will go to the LEFT conveyor" style="rounded=1;whiteSpace=wrap;html=1;absoluteArcSize=1;arcSize=14;strokeWidth=2;" vertex="1" parent="WIyWlLk6GJQsqaUBKTNV-1">
          <mxGeometry x="399.38" y="495" width="81.25" height="70" as="geometry" />
        </mxCell>
        <mxCell id="t7YejrAykJ8eL_MnhxdB-52" style="edgeStyle=orthogonalEdgeStyle;rounded=0;orthogonalLoop=1;jettySize=auto;html=1;exitX=0.5;exitY=1;exitDx=0;exitDy=0;entryX=0.5;entryY=0;entryDx=0;entryDy=0;" edge="1" parent="WIyWlLk6GJQsqaUBKTNV-1" source="t7YejrAykJ8eL_MnhxdB-44" target="t7YejrAykJ8eL_MnhxdB-50">
          <mxGeometry relative="1" as="geometry" />
        </mxCell>
        <mxCell id="t7YejrAykJ8eL_MnhxdB-44" value="Lower Box will got to the RIGHT conveyor" style="rounded=1;whiteSpace=wrap;html=1;absoluteArcSize=1;arcSize=14;strokeWidth=2;" vertex="1" parent="WIyWlLk6GJQsqaUBKTNV-1">
          <mxGeometry x="550" y="495" width="81.25" height="70" as="geometry" />
        </mxCell>
        <mxCell id="t7YejrAykJ8eL_MnhxdB-47" value="Decision based on the Machine Memory" style="text;html=1;strokeColor=none;fillColor=none;align=center;verticalAlign=middle;whiteSpace=wrap;rounded=0;" vertex="1" parent="WIyWlLk6GJQsqaUBKTNV-1">
          <mxGeometry x="460" y="400" width="120" height="30" as="geometry" />
        </mxCell>
        <mxCell id="t7YejrAykJ8eL_MnhxdB-54" style="edgeStyle=orthogonalEdgeStyle;rounded=0;orthogonalLoop=1;jettySize=auto;html=1;exitX=0.5;exitY=1;exitDx=0;exitDy=0;entryX=0;entryY=0.5;entryDx=0;entryDy=0;entryPerimeter=0;" edge="1" parent="WIyWlLk6GJQsqaUBKTNV-1" source="t7YejrAykJ8eL_MnhxdB-49" target="t7YejrAykJ8eL_MnhxdB-53">
          <mxGeometry relative="1" as="geometry" />
        </mxCell>
        <mxCell id="t7YejrAykJ8eL_MnhxdB-49" value="Left Conveyor Turned On" style="rounded=1;whiteSpace=wrap;html=1;absoluteArcSize=1;arcSize=14;strokeWidth=2;" vertex="1" parent="WIyWlLk6GJQsqaUBKTNV-1">
          <mxGeometry x="399.38" y="590" width="80.62" height="60" as="geometry" />
        </mxCell>
        <mxCell id="t7YejrAykJ8eL_MnhxdB-55" style="edgeStyle=orthogonalEdgeStyle;rounded=0;orthogonalLoop=1;jettySize=auto;html=1;exitX=0.5;exitY=1;exitDx=0;exitDy=0;entryX=1;entryY=0.5;entryDx=0;entryDy=0;entryPerimeter=0;" edge="1" parent="WIyWlLk6GJQsqaUBKTNV-1" source="t7YejrAykJ8eL_MnhxdB-50" target="t7YejrAykJ8eL_MnhxdB-53">
          <mxGeometry relative="1" as="geometry" />
        </mxCell>
        <mxCell id="t7YejrAykJ8eL_MnhxdB-50" value="Right Conveyor Turned On" style="rounded=1;whiteSpace=wrap;html=1;absoluteArcSize=1;arcSize=14;strokeWidth=2;" vertex="1" parent="WIyWlLk6GJQsqaUBKTNV-1">
          <mxGeometry x="550.63" y="590" width="80.62" height="60" as="geometry" />
        </mxCell>
        <mxCell id="t7YejrAykJ8eL_MnhxdB-57" style="edgeStyle=orthogonalEdgeStyle;rounded=0;orthogonalLoop=1;jettySize=auto;html=1;exitX=0.5;exitY=1;exitDx=0;exitDy=0;exitPerimeter=0;entryX=0;entryY=0.5;entryDx=0;entryDy=0;" edge="1" parent="WIyWlLk6GJQsqaUBKTNV-1" source="t7YejrAykJ8eL_MnhxdB-53" target="t7YejrAykJ8eL_MnhxdB-56">
          <mxGeometry relative="1" as="geometry">
            <Array as="points">
              <mxPoint x="520" y="740" />
              <mxPoint x="650" y="740" />
              <mxPoint x="650" y="105" />
            </Array>
          </mxGeometry>
        </mxCell>
        <mxCell id="t7YejrAykJ8eL_MnhxdB-53" value="" style="verticalLabelPosition=bottom;verticalAlign=top;html=1;shape=mxgraph.flowchart.or;" vertex="1" parent="WIyWlLk6GJQsqaUBKTNV-1">
          <mxGeometry x="500" y="680" width="40" height="40" as="geometry" />
        </mxCell>
        <mxCell id="t7YejrAykJ8eL_MnhxdB-60" style="edgeStyle=orthogonalEdgeStyle;rounded=0;orthogonalLoop=1;jettySize=auto;html=1;exitX=0.5;exitY=1;exitDx=0;exitDy=0;entryX=0.5;entryY=0;entryDx=0;entryDy=0;" edge="1" parent="WIyWlLk6GJQsqaUBKTNV-1" source="t7YejrAykJ8eL_MnhxdB-56" target="t7YejrAykJ8eL_MnhxdB-59">
          <mxGeometry relative="1" as="geometry" />
        </mxCell>
        <mxCell id="t7YejrAykJ8eL_MnhxdB-56" value="Triggering Either Left/Right Sensor that Reset Machine Memory" style="rounded=1;whiteSpace=wrap;html=1;absoluteArcSize=1;arcSize=14;strokeWidth=2;" vertex="1" parent="WIyWlLk6GJQsqaUBKTNV-1">
          <mxGeometry x="710" y="50" width="80" height="110" as="geometry" />
        </mxCell>
        <mxCell id="t7YejrAykJ8eL_MnhxdB-64" style="edgeStyle=orthogonalEdgeStyle;rounded=0;orthogonalLoop=1;jettySize=auto;html=1;exitX=0.5;exitY=1;exitDx=0;exitDy=0;entryX=0.5;entryY=0;entryDx=0;entryDy=0;" edge="1" parent="WIyWlLk6GJQsqaUBKTNV-1" source="t7YejrAykJ8eL_MnhxdB-59" target="t7YejrAykJ8eL_MnhxdB-61">
          <mxGeometry relative="1" as="geometry" />
        </mxCell>
        <mxCell id="t7YejrAykJ8eL_MnhxdB-59" value="Restart the Cycle from the Entry Conveyor" style="rounded=1;whiteSpace=wrap;html=1;absoluteArcSize=1;arcSize=14;strokeWidth=2;" vertex="1" parent="WIyWlLk6GJQsqaUBKTNV-1">
          <mxGeometry x="700" y="190" width="100" height="50" as="geometry" />
        </mxCell>
        <mxCell id="t7YejrAykJ8eL_MnhxdB-65" style="edgeStyle=orthogonalEdgeStyle;rounded=0;orthogonalLoop=1;jettySize=auto;html=1;exitX=0.5;exitY=1;exitDx=0;exitDy=0;entryX=0.5;entryY=0;entryDx=0;entryDy=0;entryPerimeter=0;" edge="1" parent="WIyWlLk6GJQsqaUBKTNV-1" source="t7YejrAykJ8eL_MnhxdB-61" target="t7YejrAykJ8eL_MnhxdB-62">
          <mxGeometry relative="1" as="geometry" />
        </mxCell>
        <mxCell id="t7YejrAykJ8eL_MnhxdB-61" value="The Left/Right Conveyor will automatically shutdown after 10s if the next detected object is not the same as previous object" style="rounded=1;whiteSpace=wrap;html=1;absoluteArcSize=1;arcSize=14;strokeWidth=2;" vertex="1" parent="WIyWlLk6GJQsqaUBKTNV-1">
          <mxGeometry x="700" y="285" width="100" height="140" as="geometry" />
        </mxCell>
        <mxCell id="t7YejrAykJ8eL_MnhxdB-62" value="STOP" style="strokeWidth=2;html=1;shape=mxgraph.flowchart.terminator;whiteSpace=wrap;" vertex="1" parent="WIyWlLk6GJQsqaUBKTNV-1">
          <mxGeometry x="700" y="660" width="100" height="60" as="geometry" />
        </mxCell>
      </root>
    </mxGraphModel>
  </diagram>
</mxfile>
